<svg width="1757" height="794" viewBox="0 0 1757 794" fill="none" xmlns="http://www.w3.org/2000/svg">
<path d="M149.574 465.544L191.298 459.322L231.192 447.61L240.708 432.238L236.682 416.5L227.166 404.788C224.482 403.08 221.676 401.494 218.748 400.03C216.064 398.322 213.258 397.102 210.33 396.37C207.646 395.394 204.84 395.028 201.912 395.272C199.228 395.272 196.544 396.126 193.86 397.834L184.71 404.422L154.332 390.148L143.352 361.966L152.868 314.752L169.704 292.426C170.436 294.134 171.9 294.744 174.096 294.256C176.292 293.768 178.488 292.792 180.684 291.328C182.88 289.864 184.71 288.156 186.174 286.204C187.638 284.008 188.004 282.056 187.272 280.348C191.42 279.128 196.178 277.908 201.546 276.688C206.914 275.224 211.55 273.15 215.454 270.466L262.668 260.584L270.354 259.852L276.942 267.538L271.086 283.276L257.544 286.936L239.976 288.766L213.258 302.308L200.814 318.412C196.91 322.072 194.958 326.098 194.958 330.49C195.202 334.638 196.3 339.152 198.252 344.032C200.936 349.644 202.888 353.304 204.108 355.012C205.572 356.476 207.402 357.818 209.598 359.038L231.192 366.358C233.632 368.31 235.828 369.896 237.78 371.116C239.976 372.092 242.416 372.702 245.1 372.946C247.784 373.19 251.566 373.434 256.446 373.678C261.57 373.922 268.036 374.288 275.844 374.776C278.04 378.924 280.602 382.584 283.53 385.756C286.458 388.684 289.264 392.588 291.948 397.468L299.268 413.938L288.288 450.538L279.504 460.054L261.57 486.04H252.42C249.248 486.04 245.344 486.162 240.708 486.406C236.316 486.406 231.07 486.406 224.97 486.406C218.87 486.406 213.502 487.016 208.866 488.236C204.23 489.456 200.082 490.798 196.422 492.262C192.762 493.482 189.59 494.58 186.906 495.556C184.222 496.532 181.782 496.898 179.586 496.654L166.41 492.628L144.45 496.288L136.764 480.55L138.96 471.4L149.574 465.544ZM510.081 369.652C510.081 370.384 509.837 371.604 509.349 373.312C509.105 374.776 508.739 376.362 508.251 378.07C507.763 379.778 507.275 381.364 506.787 382.828C506.543 384.292 506.421 385.39 506.421 386.122C497.881 386.854 492.269 387.586 489.585 388.318C487.145 388.806 485.681 389.05 485.193 389.05H460.671C457.011 389.05 454.205 389.05 452.253 389.05C450.301 388.806 448.715 388.684 447.495 388.684C446.519 388.684 445.787 388.806 445.299 389.05C444.811 389.05 444.079 389.172 443.103 389.416L435.417 394.174L424.071 389.05C423.827 387.83 422.607 386.488 420.411 385.024C418.459 383.56 417.117 381.852 416.385 379.9L428.097 363.796C432.977 363.796 435.539 363.918 435.783 364.162C436.271 364.162 436.393 364.04 436.149 363.796C436.149 363.552 436.881 363.308 438.345 363.064C439.809 362.576 441.517 362.21 443.469 361.966L448.959 360.868C450.667 360.624 458.597 360.99 472.749 361.966C472.993 361.966 474.701 362.576 477.873 363.796C479.093 364.284 482.143 364.162 487.023 363.43C492.147 362.454 497.881 361.966 504.225 361.966L510.081 369.652ZM511.545 469.204C511.057 470.668 510.691 472.376 510.447 474.328C510.447 476.28 510.691 477.622 511.179 478.354C510.691 478.842 509.227 479.452 506.787 480.184C504.347 480.916 500.931 482.136 496.539 483.844C491.903 485.064 487.511 485.308 483.363 484.576C479.215 483.844 475.189 483.966 471.285 484.942C459.329 484.942 447.007 486.772 434.319 490.432C430.903 491.408 427.975 492.262 425.535 492.994C423.095 493.726 421.021 494.336 419.313 494.824C418.337 495.312 417.361 495.678 416.385 495.922C415.653 495.922 414.921 496.044 414.189 496.288L385.641 497.386C383.445 498.118 381.127 498.362 378.687 498.118C376.247 497.63 373.807 497.142 371.367 496.654C368.927 495.922 366.731 495.19 364.779 494.458C362.827 493.726 361.241 493.36 360.021 493.36C358.801 493.36 356.727 493.482 353.799 493.726C350.871 493.726 348.187 493.726 345.747 493.726C343.307 492.018 341.111 490.31 339.159 488.602C337.207 486.65 337.085 483.356 338.793 478.72C339.281 476.28 340.135 473.84 341.355 471.4C342.819 468.716 343.307 466.032 342.819 463.348C342.575 462.372 341.965 460.786 340.989 458.59C340.257 456.394 339.647 454.076 339.159 451.636C338.915 449.196 338.915 446.756 339.159 444.316C339.647 441.876 340.989 439.802 343.185 438.094C345.137 434.922 345.991 431.994 345.747 429.31C345.503 426.382 344.405 423.332 342.453 420.16C343.917 418.452 344.771 416.5 345.015 414.304C345.503 411.864 345.625 409.546 345.381 407.35C345.137 405.154 344.649 403.202 343.917 401.494C343.429 399.786 342.941 398.566 342.453 397.834C343.185 394.418 343.917 389.904 344.649 384.292C345.381 378.436 345.991 372.58 346.479 366.724C347.211 360.624 347.699 355.012 347.943 349.888C348.187 344.764 348.187 340.982 347.943 338.542C347.699 335.37 347.943 332.076 348.675 328.66C349.407 325.244 350.261 321.828 351.237 318.412C352.213 314.752 352.945 311.214 353.433 307.798C353.921 304.382 353.799 301.21 353.067 298.282L353.799 296.086C354.287 295.598 353.433 291.816 351.237 284.74L357.093 271.93H357.459C362.339 271.686 367.341 271.442 372.465 271.198C377.589 270.954 382.225 270.71 386.373 270.466C390.765 270.222 394.303 270.1 396.987 270.1C399.915 269.856 401.501 269.734 401.745 269.734H452.253C453.961 269.734 456.157 270.588 458.841 272.296C461.769 273.76 471.529 274.492 488.121 274.492C488.365 275.468 488.609 276.444 488.853 277.42C489.097 278.396 489.341 279.372 489.585 280.348C490.317 284.74 491.171 288.156 492.147 290.596L489.951 294.256C486.291 294.5 483.485 294.622 481.533 294.622C479.581 294.622 478.117 294.622 477.141 294.622C476.409 294.378 475.921 294.256 475.677 294.256C475.433 294.012 475.189 293.89 474.945 293.89L446.397 290.23C439.321 288.766 430.537 289.62 420.045 292.792C415.409 294.012 411.627 294.378 408.699 293.89C405.771 293.158 403.819 293.036 402.843 293.524C399.915 292.548 397.475 292.548 395.523 293.524C393.571 294.5 392.961 296.33 393.693 299.014C394.425 301.454 395.279 302.918 396.255 303.406C397.231 303.894 397.963 304.87 398.451 306.334C397.963 307.066 398.085 308.164 398.817 309.628C399.793 310.848 400.891 312.068 402.111 313.288C403.575 314.752 405.039 315.728 406.503 316.216C407.967 316.46 408.699 316.704 408.699 316.948C408.699 317.436 408.089 319.998 406.869 324.634C405.649 329.026 404.673 334.394 403.941 340.738C403.209 347.082 402.965 353.914 403.209 361.234C403.697 368.554 405.527 375.386 408.699 381.73C407.479 384.414 406.381 389.538 405.405 397.102C404.429 404.422 403.575 411.986 402.843 419.794C402.355 427.602 401.989 434.678 401.745 441.022C401.501 447.122 401.379 450.416 401.379 450.904C401.135 450.904 400.769 451.392 400.281 452.368C400.037 453.1 399.671 453.954 399.183 454.93C398.695 455.906 398.085 456.76 397.353 457.492C396.621 457.98 395.767 457.98 394.791 457.492V460.786C394.791 460.786 395.523 460.786 396.987 460.786H398.451C398.207 462.006 398.085 463.714 398.085 465.91C398.085 468.106 397.963 469.936 397.719 471.4L425.535 467.74C430.415 468.228 436.027 468.35 442.371 468.106C448.959 467.862 456.279 467.008 464.331 465.544C472.383 464.324 478.971 463.958 484.095 464.446C489.219 464.934 493.001 464.08 495.441 461.884L504.591 461.518L511.545 469.204ZM718.816 369.652C718.816 370.384 718.572 371.604 718.084 373.312C717.84 374.776 717.474 376.362 716.986 378.07C716.498 379.778 716.01 381.364 715.522 382.828C715.278 384.292 715.156 385.39 715.156 386.122C706.616 386.854 701.004 387.586 698.32 388.318C695.88 388.806 694.416 389.05 693.928 389.05H669.406C665.746 389.05 662.94 389.05 660.988 389.05C659.036 388.806 657.45 388.684 656.23 388.684C655.254 388.684 654.522 388.806 654.034 389.05C653.546 389.05 652.814 389.172 651.838 389.416L644.152 394.174L632.806 389.05C632.562 387.83 631.342 386.488 629.146 385.024C627.194 383.56 625.852 381.852 625.12 379.9L636.832 363.796C641.712 363.796 644.274 363.918 644.518 364.162C645.006 364.162 645.128 364.04 644.884 363.796C644.884 363.552 645.616 363.308 647.08 363.064C648.544 362.576 650.252 362.21 652.204 361.966L657.694 360.868C659.402 360.624 667.332 360.99 681.484 361.966C681.728 361.966 683.436 362.576 686.608 363.796C687.828 364.284 690.878 364.162 695.758 363.43C700.882 362.454 706.616 361.966 712.96 361.966L718.816 369.652ZM720.28 469.204C719.792 470.668 719.426 472.376 719.182 474.328C719.182 476.28 719.426 477.622 719.914 478.354C719.426 478.842 717.962 479.452 715.522 480.184C713.082 480.916 709.666 482.136 705.274 483.844C700.638 485.064 696.246 485.308 692.098 484.576C687.95 483.844 683.924 483.966 680.02 484.942C668.064 484.942 655.742 486.772 643.054 490.432C639.638 491.408 636.71 492.262 634.27 492.994C631.83 493.726 629.756 494.336 628.048 494.824C627.072 495.312 626.096 495.678 625.12 495.922C624.388 495.922 623.656 496.044 622.924 496.288L594.376 497.386C592.18 498.118 589.862 498.362 587.422 498.118C584.982 497.63 582.542 497.142 580.102 496.654C577.662 495.922 575.466 495.19 573.514 494.458C571.562 493.726 569.976 493.36 568.756 493.36C567.536 493.36 565.462 493.482 562.534 493.726C559.606 493.726 556.922 493.726 554.482 493.726C552.042 492.018 549.846 490.31 547.894 488.602C545.942 486.65 545.82 483.356 547.528 478.72C548.016 476.28 548.87 473.84 550.09 471.4C551.554 468.716 552.042 466.032 551.554 463.348C551.31 462.372 550.7 460.786 549.724 458.59C548.992 456.394 548.382 454.076 547.894 451.636C547.65 449.196 547.65 446.756 547.894 444.316C548.382 441.876 549.724 439.802 551.92 438.094C553.872 434.922 554.726 431.994 554.482 429.31C554.238 426.382 553.14 423.332 551.188 420.16C552.652 418.452 553.506 416.5 553.75 414.304C554.238 411.864 554.36 409.546 554.116 407.35C553.872 405.154 553.384 403.202 552.652 401.494C552.164 399.786 551.676 398.566 551.188 397.834C551.92 394.418 552.652 389.904 553.384 384.292C554.116 378.436 554.726 372.58 555.214 366.724C555.946 360.624 556.434 355.012 556.678 349.888C556.922 344.764 556.922 340.982 556.678 338.542C556.434 335.37 556.678 332.076 557.41 328.66C558.142 325.244 558.996 321.828 559.972 318.412C560.948 314.752 561.68 311.214 562.168 307.798C562.656 304.382 562.534 301.21 561.802 298.282L562.534 296.086C563.022 295.598 562.168 291.816 559.972 284.74L565.828 271.93H566.194C571.074 271.686 576.076 271.442 581.2 271.198C586.324 270.954 590.96 270.71 595.108 270.466C599.5 270.222 603.038 270.1 605.722 270.1C608.65 269.856 610.236 269.734 610.48 269.734H660.988C662.696 269.734 664.892 270.588 667.576 272.296C670.504 273.76 680.264 274.492 696.856 274.492C697.1 275.468 697.344 276.444 697.588 277.42C697.832 278.396 698.076 279.372 698.32 280.348C699.052 284.74 699.906 288.156 700.882 290.596L698.686 294.256C695.026 294.5 692.22 294.622 690.268 294.622C688.316 294.622 686.852 294.622 685.876 294.622C685.144 294.378 684.656 294.256 684.412 294.256C684.168 294.012 683.924 293.89 683.68 293.89L655.132 290.23C648.056 288.766 639.272 289.62 628.78 292.792C624.144 294.012 620.362 294.378 617.434 293.89C614.506 293.158 612.554 293.036 611.578 293.524C608.65 292.548 606.21 292.548 604.258 293.524C602.306 294.5 601.696 296.33 602.428 299.014C603.16 301.454 604.014 302.918 604.99 303.406C605.966 303.894 606.698 304.87 607.186 306.334C606.698 307.066 606.82 308.164 607.552 309.628C608.528 310.848 609.626 312.068 610.846 313.288C612.31 314.752 613.774 315.728 615.238 316.216C616.702 316.46 617.434 316.704 617.434 316.948C617.434 317.436 616.824 319.998 615.604 324.634C614.384 329.026 613.408 334.394 612.676 340.738C611.944 347.082 611.7 353.914 611.944 361.234C612.432 368.554 614.262 375.386 617.434 381.73C616.214 384.414 615.116 389.538 614.14 397.102C613.164 404.422 612.31 411.986 611.578 419.794C611.09 427.602 610.724 434.678 610.48 441.022C610.236 447.122 610.114 450.416 610.114 450.904C609.87 450.904 609.504 451.392 609.016 452.368C608.772 453.1 608.406 453.954 607.918 454.93C607.43 455.906 606.82 456.76 606.088 457.492C605.356 457.98 604.502 457.98 603.526 457.492V460.786C603.526 460.786 604.258 460.786 605.722 460.786H607.186C606.942 462.006 606.82 463.714 606.82 465.91C606.82 468.106 606.698 469.936 606.454 471.4L634.27 467.74C639.15 468.228 644.762 468.35 651.106 468.106C657.694 467.862 665.014 467.008 673.066 465.544C681.118 464.324 687.706 463.958 692.83 464.446C697.954 464.934 701.736 464.08 704.176 461.884L713.326 461.518L720.28 469.204ZM914.74 307.066C912.3 307.066 909.494 307.066 906.322 307.066C903.15 306.822 899.49 306.578 895.342 306.334C888.266 306.09 881.8 305.968 875.944 305.968C870.088 305.724 866.184 305.358 864.232 304.87V332.686C860.816 335.37 858.376 340.738 856.912 348.79C854.96 372.946 853.74 392.344 853.252 406.984C852.764 421.38 852.642 432.604 852.886 440.656C853.13 445.536 853.374 449.684 853.618 453.1C853.862 456.272 854.228 458.834 854.716 460.786L858.742 480.184L856.912 483.112L812.626 492.994H811.528C811.04 492.994 810.43 493.116 809.698 493.36C809.21 493.36 808.722 493.36 808.234 493.36L796.156 484.942C796.156 484.698 796.278 484.576 796.522 484.576C796.766 484.332 797.01 483.966 797.254 483.478C797.498 482.746 797.742 481.648 797.986 480.184C798.23 478.476 798.352 476.158 798.352 473.23C798.352 470.79 798.352 469.082 798.352 468.106C798.596 467.13 798.474 465.544 797.986 463.348C797.498 460.42 797.498 453.832 797.986 443.584C798.23 433.336 796.522 428.212 792.862 428.212C793.35 425.528 793.594 422.356 793.594 418.696C793.838 415.036 794.082 411.62 794.326 408.448C794.57 406.496 794.692 404.666 794.692 402.958C794.692 401.006 794.692 399.054 794.692 397.102C794.936 396.858 795.058 396.614 795.058 396.37C795.302 396.126 795.546 395.882 795.79 395.638L796.156 395.272C797.376 393.32 797.986 391.856 797.986 390.88C797.986 389.66 798.474 386.976 799.45 382.828V367.09C804.086 367.822 805.062 363.918 802.378 355.378C800.182 346.106 799.816 341.47 801.28 341.47C802.012 338.298 802.744 334.638 803.476 330.49C803.964 327.074 804.452 323.414 804.94 319.51C805.428 315.362 805.916 311.214 806.404 307.066L804.94 305.968C803.232 307.432 801.158 307.92 798.718 307.432C796.522 306.944 794.448 306.578 792.496 306.334C786.884 307.066 782.126 307.676 778.222 308.164C774.318 308.652 771.146 309.506 768.706 310.726C767.242 311.214 765.9 311.58 764.68 311.824C763.46 312.068 762.85 313.776 762.85 316.948L741.988 321.34L735.4 316.582C734.424 314.142 733.57 311.824 732.838 309.628C732.106 307.188 731.618 304.26 731.374 300.844L735.766 290.23C739.182 289.742 741.866 289.498 743.818 289.498C746.014 289.498 747.6 289.62 748.576 289.864C749.796 289.864 750.65 289.986 751.138 290.23C751.626 290.474 752.114 290.596 752.602 290.596C755.286 289.376 758.092 288.278 761.02 287.302C763.948 286.082 767.364 284.984 771.268 284.008C775.416 283.032 780.174 282.178 785.542 281.446C791.154 280.47 797.864 279.494 805.672 278.518L838.978 277.054L842.638 279.982C843.858 280.714 845.2 281.446 846.664 282.178C848.128 282.666 849.592 282.91 851.056 282.91C852.764 283.154 854.35 282.544 855.814 281.08C856.302 280.592 856.79 279.86 857.278 278.884C859.23 278.396 862.402 278.396 866.794 278.884C871.43 279.128 878.384 279.982 887.656 281.446C903.76 284.13 914.374 285.594 919.498 285.838L921.694 289.498V301.576L914.74 307.066ZM1041.91 393.076L1037.52 371.482L1040.81 368.188H1059.84C1061.55 368.188 1063.5 368.188 1065.7 368.188C1068.14 368.188 1070.95 368.31 1074.12 368.554L1107.42 365.992C1110.84 365.992 1114.01 365.87 1116.94 365.626C1119.87 365.382 1122.55 364.65 1124.99 363.43C1125.48 362.698 1126.21 362.088 1127.19 361.6C1128.16 360.868 1129.26 358.916 1130.48 355.744L1131.95 342.934C1133.65 343.422 1133.65 340.86 1131.95 335.248C1130.97 332.564 1130.36 330.49 1130.12 329.026C1130.12 327.318 1130.97 326.464 1132.68 326.464C1133.17 324.268 1133.9 321.34 1134.87 317.68C1135.85 313.776 1136.83 309.628 1137.8 305.236C1139.02 300.6 1140.12 295.964 1141.1 291.328C1142.07 286.448 1142.93 281.934 1143.66 277.786L1166.72 268.636C1169.4 268.392 1172.33 268.026 1175.5 267.538C1178.67 267.05 1181.97 266.562 1185.38 266.074C1188.55 265.586 1191.24 265.22 1193.43 264.976C1195.87 264.488 1198.07 264 1200.02 263.512L1207.71 270.466V289.132C1204.29 292.304 1201.36 295.72 1198.92 299.38C1196.48 302.796 1195.02 306.456 1194.53 310.36L1193.43 317.68C1192.95 321.828 1192.21 326.22 1191.24 330.856C1190.51 335.492 1189.53 338.664 1188.31 340.372L1187.21 343.3L1189.04 349.522C1189.29 350.742 1189.65 351.108 1190.14 350.62C1190.38 350.376 1190.75 350.376 1191.24 350.62C1190.51 352.328 1189.65 354.28 1188.68 356.476C1187.7 358.672 1186.6 361.234 1185.38 364.162C1183.92 366.602 1183.19 368.554 1183.19 370.018C1183.19 371.238 1184.04 371.604 1185.75 371.116C1185.75 371.604 1185.5 375.264 1185.02 382.096C1184.77 388.928 1184.04 399.298 1182.82 413.206C1182.33 420.038 1181.84 425.162 1181.36 428.578C1181.11 431.75 1180.87 434.068 1180.62 435.532C1180.62 436.752 1180.5 437.484 1180.26 437.728C1180.26 437.972 1180.26 438.46 1180.26 439.192C1178.55 442.852 1177.21 446.268 1176.23 449.44C1175.5 452.612 1175.13 454.808 1175.13 456.028C1174.89 456.76 1175.01 457.614 1175.5 458.59C1176.23 459.566 1176.84 460.542 1177.33 461.518C1178.31 462.982 1179.16 464.08 1179.89 464.812L1181.36 476.89L1172.21 486.406L1124.99 494.458H1124.63L1115.11 486.04C1115.35 485.308 1115.6 484.21 1115.84 482.746C1116.09 481.282 1116.33 479.574 1116.57 477.622C1117.06 474.206 1117.31 471.888 1117.31 470.668C1117.55 469.448 1117.55 467.496 1117.31 464.812C1117.06 463.348 1117.43 459.444 1118.4 453.1C1119.38 446.512 1120.23 438.094 1120.97 427.846C1122.43 408.082 1122.19 398.2 1120.23 398.2C1119.01 398.2 1118.77 395.882 1119.5 391.246C1118.04 391.246 1116.33 391.368 1114.38 391.612C1112.43 391.612 1111.21 391.734 1110.72 391.978C1105.84 394.174 1101.2 395.76 1096.81 396.736C1092.66 397.468 1089.37 397.834 1086.93 397.834C1085.22 397.834 1082.17 397.224 1077.78 396.004C1073.39 394.54 1067.29 393.93 1059.48 394.174L1045.57 394.906L1041.91 393.076ZM1010.8 487.138L995.795 487.504H980.789L977.495 487.87L959.561 480.916C959.805 478.476 960.049 475.792 960.293 472.864C960.537 469.936 960.781 466.52 961.025 462.616C961.513 455.296 961.757 449.562 961.757 445.414C962.001 441.022 962.123 438.094 962.123 436.63V425.284C962.123 420.892 961.269 418.696 959.561 418.696L962.123 398.2C965.051 390.392 966.881 380.632 967.613 368.92C968.101 362.332 968.833 355.256 969.809 347.692C971.029 339.884 972.493 333.784 974.201 329.392L975.665 310.726C977.373 310.97 977.373 308.53 975.665 303.406C974.201 297.794 975.055 294.988 978.227 294.988C978.715 292.06 979.081 289.498 979.325 287.302C979.813 284.862 980.057 282.666 980.057 280.714C979.813 277.786 980.179 272.906 981.155 266.074L985.913 263.878C989.085 265.098 993.599 266.074 999.455 266.806C1005.55 267.538 1011.17 268.27 1016.29 269.002C1019.46 269.49 1022.27 269.856 1024.71 270.1C1027.15 270.1 1029.22 270.222 1030.93 270.466L1036.05 277.42L1034.96 290.596C1033.49 302.796 1033.49 308.896 1034.96 308.896C1031.78 314.508 1029.47 319.998 1028 325.366C1026.78 330.734 1025.56 335.614 1024.34 340.006C1023.37 343.666 1022.88 350.742 1022.88 361.234C1022.88 363.918 1023.24 365.87 1023.98 367.09C1024.71 368.066 1025.68 368.798 1026.9 369.286C1028.37 369.774 1029.71 369.896 1030.93 369.652C1029.47 371.116 1028.12 373.19 1026.9 375.874C1025.68 378.314 1024.46 381.364 1023.24 385.024C1022.02 388.44 1020.93 392.1 1019.95 396.004C1019.22 399.664 1018.61 403.324 1018.12 406.984C1017.63 410.4 1017.63 413.45 1018.12 416.134C1018.36 418.574 1018.85 421.746 1019.58 425.65C1020.32 429.554 1021.05 433.824 1021.78 438.46C1022.51 443.096 1023.12 447.976 1023.61 453.1C1024.1 458.224 1024.34 463.104 1024.34 467.74C1021.41 469.936 1020.68 473.596 1022.15 478.72L1022.51 479.452L1010.8 487.138ZM1452.1 488.236L1439.29 490.432C1436.36 490.92 1433.31 490.92 1430.14 490.432C1426.96 489.944 1423.67 489.7 1420.25 489.7C1419.52 489.7 1418.42 489.7 1416.96 489.7C1415.5 489.7 1413.79 489.7 1411.84 489.7C1410.13 489.7 1408.42 489.822 1406.71 490.066C1405 490.066 1403.54 490.066 1402.32 490.066L1394.27 484.576C1395 479.696 1394.76 476.158 1393.54 473.962C1392.56 471.766 1391.83 469.692 1391.34 467.74C1390.85 466.276 1389.88 463.958 1388.41 460.786C1386.95 457.614 1385.61 453.954 1384.39 449.806C1384.39 449.074 1383.17 446.878 1380.73 443.218C1378.29 439.558 1376.33 436.264 1374.87 433.336L1370.48 435.166C1369.26 435.166 1367.92 435.532 1366.45 436.264C1364.99 436.996 1361.33 437.362 1355.47 437.362C1354.74 435.898 1353.52 434.922 1351.81 434.434C1350.1 433.702 1348.15 433.58 1345.96 434.068C1344 434.312 1341.93 435.044 1339.73 436.264C1337.78 437.484 1336.07 438.948 1334.61 440.656L1319.6 442.852C1318.63 440.656 1317.53 438.948 1316.31 437.728C1315.33 436.264 1314.24 434.922 1313.02 433.702C1312.04 432.482 1311.19 431.14 1310.45 429.676C1309.72 428.212 1309.36 426.26 1309.36 423.82C1314.24 422.6 1317.04 421.014 1317.77 419.062C1318.75 417.11 1319.48 416.256 1319.97 416.5C1321.43 417.232 1322.78 417.598 1324 417.598C1322.29 417.598 1321.8 417.354 1322.53 416.866C1323.26 416.378 1326.56 415.158 1332.41 413.206L1359.13 409.912L1364.62 413.938C1368.53 414.914 1371.45 415.158 1373.41 414.67C1375.36 414.182 1376.7 413.328 1377.43 412.108C1378.16 410.644 1378.53 409.058 1378.53 407.35C1378.77 405.642 1379.02 404.178 1379.26 402.958C1379.75 400.274 1379.14 398.078 1377.43 396.37C1375.97 394.418 1373.89 392.71 1371.21 391.246C1370.72 388.562 1369.75 385.512 1368.28 382.096C1367.06 378.436 1365.48 374.166 1363.52 369.286C1361.82 364.65 1360.23 359.77 1358.77 354.646C1357.55 349.278 1356.45 344.398 1355.47 340.006C1354.5 335.614 1353.76 331.954 1353.28 329.026C1352.79 326.098 1352.42 324.39 1352.18 323.902C1348.76 321.706 1345.96 321.584 1343.76 323.536C1341.56 325.244 1339.73 327.806 1338.27 331.222C1337.05 334.638 1336.2 338.298 1335.71 342.202C1335.46 345.862 1335.46 348.424 1335.71 349.888C1335.46 350.376 1334.85 351.23 1333.88 352.45C1332.9 353.426 1331.8 354.524 1330.58 355.744C1329.36 356.964 1328.27 358.184 1327.29 359.404C1326.31 360.38 1325.7 361.112 1325.46 361.6C1324.48 363.308 1324.24 365.138 1324.73 367.09C1325.22 369.042 1324.85 370.75 1323.63 372.214C1318.75 380.998 1313.02 387.952 1306.43 393.076C1304.72 394.54 1303.38 396.614 1302.4 399.298C1301.43 401.982 1300.82 404.788 1300.57 407.716C1300.33 410.644 1300.57 413.572 1301.3 416.5C1302.04 419.184 1303.38 421.38 1305.33 423.088C1302.89 424.552 1300.94 426.138 1299.47 427.846C1298.25 429.31 1297.16 431.018 1296.18 432.97C1295.45 434.678 1294.72 436.63 1293.98 438.826C1293.25 440.778 1292.4 442.974 1291.42 445.414C1287.27 456.394 1285.2 462.128 1285.2 462.616L1280.08 473.23L1275.32 492.628C1275.56 496.288 1274.22 498.484 1271.29 499.216C1268.61 499.948 1264.22 500.314 1258.12 500.314C1252.26 501.778 1247.14 502.51 1242.74 502.51C1238.35 502.266 1236.89 499.948 1238.35 495.556C1244.7 480.428 1249.33 469.204 1252.26 461.884C1255.43 454.32 1257.02 448.586 1257.02 444.682C1257.02 443.462 1257.51 442.486 1258.48 441.754C1259.7 440.778 1260.68 440.046 1261.41 439.558C1261.65 439.07 1262.51 436.508 1263.97 431.872C1265.68 427.236 1267.51 422.112 1269.46 416.5C1271.41 410.644 1273.24 405.154 1274.95 400.03C1276.9 394.662 1278.37 391.002 1279.34 389.05C1281.54 384.414 1284.1 379.168 1287.03 373.312C1290.2 367.456 1293.86 361.844 1298.01 356.476C1300.21 353.548 1302.04 349.522 1303.5 344.398C1305.21 339.274 1306.79 333.662 1308.26 327.562C1309.72 321.462 1311.31 315.24 1313.02 308.896C1314.72 302.552 1316.92 296.696 1319.6 291.328C1321.07 290.84 1325.34 285.472 1332.41 275.224C1332.9 274.736 1333.27 274.248 1333.51 273.76C1334 273.028 1334.49 272.418 1334.98 271.93L1381.82 269.002C1382.8 270.222 1383.9 271.686 1385.12 273.394C1386.34 275.102 1387.68 276.932 1389.14 278.884C1393.78 284.74 1396.59 289.376 1397.56 292.792C1398.54 296.208 1399.15 298.526 1399.39 299.746C1398.9 300.478 1401.47 308.774 1407.08 324.634C1408.54 328.538 1409.76 332.93 1410.74 337.81C1411.71 342.69 1412.45 347.326 1412.93 351.718C1413.42 355.866 1413.67 359.526 1413.67 362.698C1413.67 365.626 1413.54 367.212 1413.3 367.456C1412.81 367.7 1416.72 370.75 1425.01 376.606C1426.96 378.07 1428.06 379.412 1428.31 380.632C1428.79 381.852 1428.79 382.95 1428.31 383.926C1428.06 384.902 1427.57 385.756 1426.84 386.488C1426.11 387.22 1425.74 387.708 1425.74 387.952L1435.63 401.128C1435.63 401.128 1438.43 411.742 1444.04 432.97C1447.22 443.218 1449.53 452.002 1451 459.322C1452.46 466.398 1453.19 471.888 1453.19 475.792C1453.19 476.28 1453.32 476.646 1453.56 476.89C1453.56 476.646 1453.8 477.256 1454.29 478.72L1452.1 488.236ZM1630.66 307.066C1628.22 307.066 1625.41 307.066 1622.24 307.066C1619.07 306.822 1615.41 306.578 1611.26 306.334C1604.18 306.09 1597.72 305.968 1591.86 305.968C1586 305.724 1582.1 305.358 1580.15 304.87V332.686C1576.73 335.37 1574.29 340.738 1572.83 348.79C1570.88 372.946 1569.66 392.344 1569.17 406.984C1568.68 421.38 1568.56 432.604 1568.8 440.656C1569.05 445.536 1569.29 449.684 1569.53 453.1C1569.78 456.272 1570.14 458.834 1570.63 460.786L1574.66 480.184L1572.83 483.112L1528.54 492.994H1527.44C1526.96 492.994 1526.35 493.116 1525.61 493.36C1525.13 493.36 1524.64 493.36 1524.15 493.36L1512.07 484.942C1512.07 484.698 1512.19 484.576 1512.44 484.576C1512.68 484.332 1512.93 483.966 1513.17 483.478C1513.41 482.746 1513.66 481.648 1513.9 480.184C1514.15 478.476 1514.27 476.158 1514.27 473.23C1514.27 470.79 1514.27 469.082 1514.27 468.106C1514.51 467.13 1514.39 465.544 1513.9 463.348C1513.41 460.42 1513.41 453.832 1513.9 443.584C1514.15 433.336 1512.44 428.212 1508.78 428.212C1509.27 425.528 1509.51 422.356 1509.51 418.696C1509.75 415.036 1510 411.62 1510.24 408.448C1510.49 406.496 1510.61 404.666 1510.61 402.958C1510.61 401.006 1510.61 399.054 1510.61 397.102C1510.85 396.858 1510.97 396.614 1510.97 396.37C1511.22 396.126 1511.46 395.882 1511.71 395.638L1512.07 395.272C1513.29 393.32 1513.9 391.856 1513.9 390.88C1513.9 389.66 1514.39 386.976 1515.37 382.828V367.09C1520 367.822 1520.98 363.918 1518.29 355.378C1516.1 346.106 1515.73 341.47 1517.2 341.47C1517.93 338.298 1518.66 334.638 1519.39 330.49C1519.88 327.074 1520.37 323.414 1520.86 319.51C1521.34 315.362 1521.83 311.214 1522.32 307.066L1520.86 305.968C1519.15 307.432 1517.07 307.92 1514.63 307.432C1512.44 306.944 1510.36 306.578 1508.41 306.334C1502.8 307.066 1498.04 307.676 1494.14 308.164C1490.23 308.652 1487.06 309.506 1484.62 310.726C1483.16 311.214 1481.82 311.58 1480.6 311.824C1479.38 312.068 1478.77 313.776 1478.77 316.948L1457.9 321.34L1451.32 316.582C1450.34 314.142 1449.49 311.824 1448.75 309.628C1448.02 307.188 1447.53 304.26 1447.29 300.844L1451.68 290.23C1455.1 289.742 1457.78 289.498 1459.73 289.498C1461.93 289.498 1463.52 289.62 1464.49 289.864C1465.71 289.864 1466.57 289.986 1467.05 290.23C1467.54 290.474 1468.03 290.596 1468.52 290.596C1471.2 289.376 1474.01 288.278 1476.94 287.302C1479.86 286.082 1483.28 284.984 1487.18 284.008C1491.33 283.032 1496.09 282.178 1501.46 281.446C1507.07 280.47 1513.78 279.494 1521.59 278.518L1554.89 277.054L1558.55 279.982C1559.77 280.714 1561.12 281.446 1562.58 282.178C1564.04 282.666 1565.51 282.91 1566.97 282.91C1568.68 283.154 1570.27 282.544 1571.73 281.08C1572.22 280.592 1572.71 279.86 1573.19 278.884C1575.15 278.396 1578.32 278.396 1582.71 278.884C1587.35 279.128 1594.3 279.982 1603.57 281.446C1619.68 284.13 1630.29 285.594 1635.41 285.838L1637.61 289.498V301.576L1630.66 307.066Z" fill="#0977AA"/>
</svg>
